<svg xmlns="http://www.w3.org/2000/svg" width="1150" height="232" font-family="monospace">
<rect width="1150" height="232" fill="#0d1117"/>
<text x="100" y="30" fill="#e6edf3" font-size="15" font-weight="bold">BlitCRT frame @ 6.4MHz (real RTL): hsync 15.7kHz lines, vsync every 16.66ms = 60Hz</text>
<line x1="100.0" y1="44" x2="100.0" y2="200" stroke="#21262d"/>
<text x="100.0" y="218" fill="#7d8590" font-size="10" text-anchor="middle">0.0ms</text>
<line x1="203.0" y1="44" x2="203.0" y2="200" stroke="#21262d"/>
<text x="203.0" y="218" fill="#7d8590" font-size="10" text-anchor="middle">1.9ms</text>
<line x1="306.0" y1="44" x2="306.0" y2="200" stroke="#21262d"/>
<text x="306.0" y="218" fill="#7d8590" font-size="10" text-anchor="middle">3.7ms</text>
<line x1="409.0" y1="44" x2="409.0" y2="200" stroke="#21262d"/>
<text x="409.0" y="218" fill="#7d8590" font-size="10" text-anchor="middle">5.5ms</text>
<line x1="512.0" y1="44" x2="512.0" y2="200" stroke="#21262d"/>
<text x="512.0" y="218" fill="#7d8590" font-size="10" text-anchor="middle">7.4ms</text>
<line x1="615.0" y1="44" x2="615.0" y2="200" stroke="#21262d"/>
<text x="615.0" y="218" fill="#7d8590" font-size="10" text-anchor="middle">9.2ms</text>
<line x1="718.0" y1="44" x2="718.0" y2="200" stroke="#21262d"/>
<text x="718.0" y="218" fill="#7d8590" font-size="10" text-anchor="middle">11.1ms</text>
<line x1="821.0" y1="44" x2="821.0" y2="200" stroke="#21262d"/>
<text x="821.0" y="218" fill="#7d8590" font-size="10" text-anchor="middle">12.9ms</text>
<line x1="924.0" y1="44" x2="924.0" y2="200" stroke="#21262d"/>
<text x="924.0" y="218" fill="#7d8590" font-size="10" text-anchor="middle">14.8ms</text>
<line x1="1027.0" y1="44" x2="1027.0" y2="200" stroke="#21262d"/>
<text x="1027.0" y="218" fill="#7d8590" font-size="10" text-anchor="middle">16.6ms</text>
<line x1="1130.0" y1="44" x2="1130.0" y2="200" stroke="#21262d"/>
<text x="1130.0" y="218" fill="#7d8590" font-size="10" text-anchor="middle">18.5ms</text>
<text x="90" y="76" fill="#58a6ff" font-size="12" text-anchor="end">hs_n</text>
<path d="M 100.0 60.0 L 102.9 60.0 L 102.9 84.0 L 103.1 84.0 L 103.1 60.0 L 106.4 60.0 L 106.4 84.0 L 106.7 84.0 L 106.7 60.0 L 109.9 60.0 L 109.9 84.0 L 110.2 84.0 L 110.2 60.0 L 113.5 60.0 L 113.5 84.0 L 113.7 84.0 L 113.7 60.0 L 117.0 60.0 L 117.0 84.0 L 117.3 84.0 L 117.3 60.0 L 120.6 60.0 L 120.6 84.0 L 120.8 84.0 L 120.8 60.0 L 124.1 60.0 L 124.1 84.0 L 124.4 84.0 L 124.4 60.0 L 127.6 60.0 L 127.6 84.0 L 127.9 84.0 L 127.9 60.0 L 131.2 60.0 L 131.2 84.0 L 131.5 84.0 L 131.5 60.0 L 134.7 60.0 L 134.7 84.0 L 135.0 84.0 L 135.0 60.0 L 138.3 60.0 L 138.3 84.0 L 138.5 84.0 L 138.5 60.0 L 141.8 60.0 L 141.8 84.0 L 142.1 84.0 L 142.1 60.0 L 145.3 60.0 L 145.3 84.0 L 145.6 84.0 L 145.6 60.0 L 148.9 60.0 L 148.9 84.0 L 149.2 84.0 L 149.2 60.0 L 152.4 60.0 L 152.4 84.0 L 152.7 84.0 L 152.7 60.0 L 156.0 60.0 L 156.0 84.0 L 156.2 84.0 L 156.2 60.0 L 159.5 60.0 L 159.5 84.0 L 159.8 84.0 L 159.8 60.0 L 163.0 60.0 L 163.0 84.0 L 163.3 84.0 L 163.3 60.0 L 166.6 60.0 L 166.6 84.0 L 166.9 84.0 L 166.9 60.0 L 170.1 60.0 L 170.1 84.0 L 170.4 84.0 L 170.4 60.0 L 173.7 60.0 L 173.7 84.0 L 173.9 84.0 L 173.9 60.0 L 177.2 60.0 L 177.2 84.0 L 177.5 84.0 L 177.5 60.0 L 180.8 60.0 L 180.8 84.0 L 181.0 84.0 L 181.0 60.0 L 184.3 60.0 L 184.3 84.0 L 184.6 84.0 L 184.6 60.0 L 187.8 60.0 L 187.8 84.0 L 188.1 84.0 L 188.1 60.0 L 191.4 60.0 L 191.4 84.0 L 191.6 84.0 L 191.6 60.0 L 194.9 60.0 L 194.9 84.0 L 195.2 84.0 L 195.2 60.0 L 198.5 60.0 L 198.5 84.0 L 198.7 84.0 L 198.7 60.0 L 202.0 60.0 L 202.0 84.0 L 202.3 84.0 L 202.3 60.0 L 205.5 60.0 L 205.5 84.0 L 205.8 84.0 L 205.8 60.0 L 209.1 60.0 L 209.1 84.0 L 209.3 84.0 L 209.3 60.0 L 212.6 60.0 L 212.6 84.0 L 212.9 84.0 L 212.9 60.0 L 216.2 60.0 L 216.2 84.0 L 216.4 84.0 L 216.4 60.0 L 219.7 60.0 L 219.7 84.0 L 220.0 84.0 L 220.0 60.0 L 223.2 60.0 L 223.2 84.0 L 223.5 84.0 L 223.5 60.0 L 226.8 60.0 L 226.8 84.0 L 227.0 84.0 L 227.0 60.0 L 230.3 60.0 L 230.3 84.0 L 230.6 84.0 L 230.6 60.0 L 233.9 60.0 L 233.9 84.0 L 234.1 84.0 L 234.1 60.0 L 237.4 60.0 L 237.4 84.0 L 237.7 84.0 L 237.7 60.0 L 240.9 60.0 L 240.9 84.0 L 241.2 84.0 L 241.2 60.0 L 244.5 60.0 L 244.5 84.0 L 244.8 84.0 L 244.8 60.0 L 248.0 60.0 L 248.0 84.0 L 248.3 84.0 L 248.3 60.0 L 251.6 60.0 L 251.6 84.0 L 251.8 84.0 L 251.8 60.0 L 255.1 60.0 L 255.1 84.0 L 255.4 84.0 L 255.4 60.0 L 258.6 60.0 L 258.6 84.0 L 258.9 84.0 L 258.9 60.0 L 262.2 60.0 L 262.2 84.0 L 262.5 84.0 L 262.5 60.0 L 265.7 60.0 L 265.7 84.0 L 266.0 84.0 L 266.0 60.0 L 269.3 60.0 L 269.3 84.0 L 269.5 84.0 L 269.5 60.0 L 272.8 60.0 L 272.8 84.0 L 273.1 84.0 L 273.1 60.0 L 276.3 60.0 L 276.3 84.0 L 276.6 84.0 L 276.6 60.0 L 279.9 60.0 L 279.9 84.0 L 280.2 84.0 L 280.2 60.0 L 283.4 60.0 L 283.4 84.0 L 283.7 84.0 L 283.7 60.0 L 287.0 60.0 L 287.0 84.0 L 287.2 84.0 L 287.2 60.0 L 290.5 60.0 L 290.5 84.0 L 290.8 84.0 L 290.8 60.0 L 294.1 60.0 L 294.1 84.0 L 294.3 84.0 L 294.3 60.0 L 297.6 60.0 L 297.6 84.0 L 297.9 84.0 L 297.9 60.0 L 301.1 60.0 L 301.1 84.0 L 301.4 84.0 L 301.4 60.0 L 304.7 60.0 L 304.7 84.0 L 304.9 84.0 L 304.9 60.0 L 308.2 60.0 L 308.2 84.0 L 308.5 84.0 L 308.5 60.0 L 311.8 60.0 L 311.8 84.0 L 312.0 84.0 L 312.0 60.0 L 315.3 60.0 L 315.3 84.0 L 315.6 84.0 L 315.6 60.0 L 318.8 60.0 L 318.8 84.0 L 319.1 84.0 L 319.1 60.0 L 322.4 60.0 L 322.4 84.0 L 322.6 84.0 L 322.6 60.0 L 325.9 60.0 L 325.9 84.0 L 326.2 84.0 L 326.2 60.0 L 329.5 60.0 L 329.5 84.0 L 329.7 84.0 L 329.7 60.0 L 333.0 60.0 L 333.0 84.0 L 333.3 84.0 L 333.3 60.0 L 336.5 60.0 L 336.5 84.0 L 336.8 84.0 L 336.8 60.0 L 340.1 60.0 L 340.1 84.0 L 340.3 84.0 L 340.3 60.0 L 343.6 60.0 L 343.6 84.0 L 343.9 84.0 L 343.9 60.0 L 347.2 60.0 L 347.2 84.0 L 347.4 84.0 L 347.4 60.0 L 350.7 60.0 L 350.7 84.0 L 351.0 84.0 L 351.0 60.0 L 354.2 60.0 L 354.2 84.0 L 354.5 84.0 L 354.5 60.0 L 357.8 60.0 L 357.8 84.0 L 358.1 84.0 L 358.1 60.0 L 361.3 60.0 L 361.3 84.0 L 361.6 84.0 L 361.6 60.0 L 364.9 60.0 L 364.9 84.0 L 365.1 84.0 L 365.1 60.0 L 368.4 60.0 L 368.4 84.0 L 368.7 84.0 L 368.7 60.0 L 371.9 60.0 L 371.9 84.0 L 372.2 84.0 L 372.2 60.0 L 375.5 60.0 L 375.5 84.0 L 375.8 84.0 L 375.8 60.0 L 379.0 60.0 L 379.0 84.0 L 379.3 84.0 L 379.3 60.0 L 382.6 60.0 L 382.6 84.0 L 382.8 84.0 L 382.8 60.0 L 386.1 60.0 L 386.1 84.0 L 386.4 84.0 L 386.4 60.0 L 389.6 60.0 L 389.6 84.0 L 389.9 84.0 L 389.9 60.0 L 393.2 60.0 L 393.2 84.0 L 393.5 84.0 L 393.5 60.0 L 396.7 60.0 L 396.7 84.0 L 397.0 84.0 L 397.0 60.0 L 400.3 60.0 L 400.3 84.0 L 400.5 84.0 L 400.5 60.0 L 403.8 60.0 L 403.8 84.0 L 404.1 84.0 L 404.1 60.0 L 407.4 60.0 L 407.4 84.0 L 407.6 84.0 L 407.6 60.0 L 410.9 60.0 L 410.9 84.0 L 411.2 84.0 L 411.2 60.0 L 414.4 60.0 L 414.4 84.0 L 414.7 84.0 L 414.7 60.0 L 418.0 60.0 L 418.0 84.0 L 418.2 84.0 L 418.2 60.0 L 421.5 60.0 L 421.5 84.0 L 421.8 84.0 L 421.8 60.0 L 425.1 60.0 L 425.1 84.0 L 425.3 84.0 L 425.3 60.0 L 428.6 60.0 L 428.6 84.0 L 428.9 84.0 L 428.9 60.0 L 432.1 60.0 L 432.1 84.0 L 432.4 84.0 L 432.4 60.0 L 435.7 60.0 L 435.7 84.0 L 435.9 84.0 L 435.9 60.0 L 439.2 60.0 L 439.2 84.0 L 439.5 84.0 L 439.5 60.0 L 442.8 60.0 L 442.8 84.0 L 443.0 84.0 L 443.0 60.0 L 446.3 60.0 L 446.3 84.0 L 446.6 84.0 L 446.6 60.0 L 449.8 60.0 L 449.8 84.0 L 450.1 84.0 L 450.1 60.0 L 453.4 60.0 L 453.4 84.0 L 453.6 84.0 L 453.6 60.0 L 456.9 60.0 L 456.9 84.0 L 457.2 84.0 L 457.2 60.0 L 460.5 60.0 L 460.5 84.0 L 460.7 84.0 L 460.7 60.0 L 464.0 60.0 L 464.0 84.0 L 464.3 84.0 L 464.3 60.0 L 467.5 60.0 L 467.5 84.0 L 467.8 84.0 L 467.8 60.0 L 471.1 60.0 L 471.1 84.0 L 471.4 84.0 L 471.4 60.0 L 474.6 60.0 L 474.6 84.0 L 474.9 84.0 L 474.9 60.0 L 478.2 60.0 L 478.2 84.0 L 478.4 84.0 L 478.4 60.0 L 481.7 60.0 L 481.7 84.0 L 482.0 84.0 L 482.0 60.0 L 485.2 60.0 L 485.2 84.0 L 485.5 84.0 L 485.5 60.0 L 488.8 60.0 L 488.8 84.0 L 489.1 84.0 L 489.1 60.0 L 492.3 60.0 L 492.3 84.0 L 492.6 84.0 L 492.6 60.0 L 495.9 60.0 L 495.9 84.0 L 496.1 84.0 L 496.1 60.0 L 499.4 60.0 L 499.4 84.0 L 499.7 84.0 L 499.7 60.0 L 502.9 60.0 L 502.9 84.0 L 503.2 84.0 L 503.2 60.0 L 506.5 60.0 L 506.5 84.0 L 506.8 84.0 L 506.8 60.0 L 510.0 60.0 L 510.0 84.0 L 510.3 84.0 L 510.3 60.0 L 513.6 60.0 L 513.6 84.0 L 513.8 84.0 L 513.8 60.0 L 517.1 60.0 L 517.1 84.0 L 517.4 84.0 L 517.4 60.0 L 520.7 60.0 L 520.7 84.0 L 520.9 84.0 L 520.9 60.0 L 524.2 60.0 L 524.2 84.0 L 524.5 84.0 L 524.5 60.0 L 527.7 60.0 L 527.7 84.0 L 528.0 84.0 L 528.0 60.0 L 531.3 60.0 L 531.3 84.0 L 531.5 84.0 L 531.5 60.0 L 534.8 60.0 L 534.8 84.0 L 535.1 84.0 L 535.1 60.0 L 538.4 60.0 L 538.4 84.0 L 538.6 84.0 L 538.6 60.0 L 541.9 60.0 L 541.9 84.0 L 542.2 84.0 L 542.2 60.0 L 545.4 60.0 L 545.4 84.0 L 545.7 84.0 L 545.7 60.0 L 549.0 60.0 L 549.0 84.0 L 549.2 84.0 L 549.2 60.0 L 552.5 60.0 L 552.5 84.0 L 552.8 84.0 L 552.8 60.0 L 556.1 60.0 L 556.1 84.0 L 556.3 84.0 L 556.3 60.0 L 559.6 60.0 L 559.6 84.0 L 559.9 84.0 L 559.9 60.0 L 563.1 60.0 L 563.1 84.0 L 563.4 84.0 L 563.4 60.0 L 566.7 60.0 L 566.7 84.0 L 566.9 84.0 L 566.9 60.0 L 570.2 60.0 L 570.2 84.0 L 570.5 84.0 L 570.5 60.0 L 573.8 60.0 L 573.8 84.0 L 574.0 84.0 L 574.0 60.0 L 577.3 60.0 L 577.3 84.0 L 577.6 84.0 L 577.6 60.0 L 580.8 60.0 L 580.8 84.0 L 581.1 84.0 L 581.1 60.0 L 584.4 60.0 L 584.4 84.0 L 584.7 84.0 L 584.7 60.0 L 587.9 60.0 L 587.9 84.0 L 588.2 84.0 L 588.2 60.0 L 591.5 60.0 L 591.5 84.0 L 591.7 84.0 L 591.7 60.0 L 595.0 60.0 L 595.0 84.0 L 595.3 84.0 L 595.3 60.0 L 598.5 60.0 L 598.5 84.0 L 598.8 84.0 L 598.8 60.0 L 602.1 60.0 L 602.1 84.0 L 602.4 84.0 L 602.4 60.0 L 605.6 60.0 L 605.6 84.0 L 605.9 84.0 L 605.9 60.0 L 609.2 60.0 L 609.2 84.0 L 609.4 84.0 L 609.4 60.0 L 612.7 60.0 L 612.7 84.0 L 613.0 84.0 L 613.0 60.0 L 616.2 60.0 L 616.2 84.0 L 616.5 84.0 L 616.5 60.0 L 619.8 60.0 L 619.8 84.0 L 620.1 84.0 L 620.1 60.0 L 623.3 60.0 L 623.3 84.0 L 623.6 84.0 L 623.6 60.0 L 626.9 60.0 L 626.9 84.0 L 627.1 84.0 L 627.1 60.0 L 630.4 60.0 L 630.4 84.0 L 630.7 84.0 L 630.7 60.0 L 634.0 60.0 L 634.0 84.0 L 634.2 84.0 L 634.2 60.0 L 637.5 60.0 L 637.5 84.0 L 637.8 84.0 L 637.8 60.0 L 641.0 60.0 L 641.0 84.0 L 641.3 84.0 L 641.3 60.0 L 644.6 60.0 L 644.6 84.0 L 644.8 84.0 L 644.8 60.0 L 648.1 60.0 L 648.1 84.0 L 648.4 84.0 L 648.4 60.0 L 651.7 60.0 L 651.7 84.0 L 651.9 84.0 L 651.9 60.0 L 655.2 60.0 L 655.2 84.0 L 655.5 84.0 L 655.5 60.0 L 658.7 60.0 L 658.7 84.0 L 659.0 84.0 L 659.0 60.0 L 662.3 60.0 L 662.3 84.0 L 662.5 84.0 L 662.5 60.0 L 665.8 60.0 L 665.8 84.0 L 666.1 84.0 L 666.1 60.0 L 669.4 60.0 L 669.4 84.0 L 669.6 84.0 L 669.6 60.0 L 672.9 60.0 L 672.9 84.0 L 673.2 84.0 L 673.2 60.0 L 676.4 60.0 L 676.4 84.0 L 676.7 84.0 L 676.7 60.0 L 680.0 60.0 L 680.0 84.0 L 680.2 84.0 L 680.2 60.0 L 683.5 60.0 L 683.5 84.0 L 683.8 84.0 L 683.8 60.0 L 687.1 60.0 L 687.1 84.0 L 687.3 84.0 L 687.3 60.0 L 690.6 60.0 L 690.6 84.0 L 690.9 84.0 L 690.9 60.0 L 694.1 60.0 L 694.1 84.0 L 694.4 84.0 L 694.4 60.0 L 697.7 60.0 L 697.7 84.0 L 698.0 84.0 L 698.0 60.0 L 701.2 60.0 L 701.2 84.0 L 701.5 84.0 L 701.5 60.0 L 704.8 60.0 L 704.8 84.0 L 705.0 84.0 L 705.0 60.0 L 708.3 60.0 L 708.3 84.0 L 708.6 84.0 L 708.6 60.0 L 711.8 60.0 L 711.8 84.0 L 712.1 84.0 L 712.1 60.0 L 715.4 60.0 L 715.4 84.0 L 715.7 84.0 L 715.7 60.0 L 718.9 60.0 L 718.9 84.0 L 719.2 84.0 L 719.2 60.0 L 722.5 60.0 L 722.5 84.0 L 722.7 84.0 L 722.7 60.0 L 726.0 60.0 L 726.0 84.0 L 726.3 84.0 L 726.3 60.0 L 729.5 60.0 L 729.5 84.0 L 729.8 84.0 L 729.8 60.0 L 733.1 60.0 L 733.1 84.0 L 733.4 84.0 L 733.4 60.0 L 736.6 60.0 L 736.6 84.0 L 736.9 84.0 L 736.9 60.0 L 740.2 60.0 L 740.2 84.0 L 740.4 84.0 L 740.4 60.0 L 743.7 60.0 L 743.7 84.0 L 744.0 84.0 L 744.0 60.0 L 747.3 60.0 L 747.3 84.0 L 747.5 84.0 L 747.5 60.0 L 750.8 60.0 L 750.8 84.0 L 751.1 84.0 L 751.1 60.0 L 754.3 60.0 L 754.3 84.0 L 754.6 84.0 L 754.6 60.0 L 757.9 60.0 L 757.9 84.0 L 758.1 84.0 L 758.1 60.0 L 761.4 60.0 L 761.4 84.0 L 761.7 84.0 L 761.7 60.0 L 765.0 60.0 L 765.0 84.0 L 765.2 84.0 L 765.2 60.0 L 768.5 60.0 L 768.5 84.0 L 768.8 84.0 L 768.8 60.0 L 772.0 60.0 L 772.0 84.0 L 772.3 84.0 L 772.3 60.0 L 775.6 60.0 L 775.6 84.0 L 775.8 84.0 L 775.8 60.0 L 779.1 60.0 L 779.1 84.0 L 779.4 84.0 L 779.4 60.0 L 782.7 60.0 L 782.7 84.0 L 782.9 84.0 L 782.9 60.0 L 786.2 60.0 L 786.2 84.0 L 786.5 84.0 L 786.5 60.0 L 789.7 60.0 L 789.7 84.0 L 790.0 84.0 L 790.0 60.0 L 793.3 60.0 L 793.3 84.0 L 793.5 84.0 L 793.5 60.0 L 796.8 60.0 L 796.8 84.0 L 797.1 84.0 L 797.1 60.0 L 800.4 60.0 L 800.4 84.0 L 800.6 84.0 L 800.6 60.0 L 803.9 60.0 L 803.9 84.0 L 804.2 84.0 L 804.2 60.0 L 807.4 60.0 L 807.4 84.0 L 807.7 84.0 L 807.7 60.0 L 811.0 60.0 L 811.0 84.0 L 811.3 84.0 L 811.3 60.0 L 814.5 60.0 L 814.5 84.0 L 814.8 84.0 L 814.8 60.0 L 818.1 60.0 L 818.1 84.0 L 818.3 84.0 L 818.3 60.0 L 821.6 60.0 L 821.6 84.0 L 821.9 84.0 L 821.9 60.0 L 825.1 60.0 L 825.1 84.0 L 825.4 84.0 L 825.4 60.0 L 828.7 60.0 L 828.7 84.0 L 829.0 84.0 L 829.0 60.0 L 832.2 60.0 L 832.2 84.0 L 832.5 84.0 L 832.5 60.0 L 835.8 60.0 L 835.8 84.0 L 836.0 84.0 L 836.0 60.0 L 839.3 60.0 L 839.3 84.0 L 839.6 84.0 L 839.6 60.0 L 842.8 60.0 L 842.8 84.0 L 843.1 84.0 L 843.1 60.0 L 846.4 60.0 L 846.4 84.0 L 846.7 84.0 L 846.7 60.0 L 849.9 60.0 L 849.9 84.0 L 850.2 84.0 L 850.2 60.0 L 853.5 60.0 L 853.5 84.0 L 853.7 84.0 L 853.7 60.0 L 857.0 60.0 L 857.0 84.0 L 857.3 84.0 L 857.3 60.0 L 860.6 60.0 L 860.6 84.0 L 860.8 84.0 L 860.8 60.0 L 864.1 60.0 L 864.1 84.0 L 864.4 84.0 L 864.4 60.0 L 867.6 60.0 L 867.6 84.0 L 867.9 84.0 L 867.9 60.0 L 871.2 60.0 L 871.2 84.0 L 871.4 84.0 L 871.4 60.0 L 874.7 60.0 L 874.7 84.0 L 875.0 84.0 L 875.0 60.0 L 878.3 60.0 L 878.3 84.0 L 878.5 84.0 L 878.5 60.0 L 881.8 60.0 L 881.8 84.0 L 882.1 84.0 L 882.1 60.0 L 885.3 60.0 L 885.3 84.0 L 885.6 84.0 L 885.6 60.0 L 888.9 60.0 L 888.9 84.0 L 889.1 84.0 L 889.1 60.0 L 892.4 60.0 L 892.4 84.0 L 892.7 84.0 L 892.7 60.0 L 896.0 60.0 L 896.0 84.0 L 896.2 84.0 L 896.2 60.0 L 899.5 60.0 L 899.5 84.0 L 899.8 84.0 L 899.8 60.0 L 903.0 60.0 L 903.0 84.0 L 903.3 84.0 L 903.3 60.0 L 906.6 60.0 L 906.6 84.0 L 906.8 84.0 L 906.8 60.0 L 910.1 60.0 L 910.1 84.0 L 910.4 84.0 L 910.4 60.0 L 913.7 60.0 L 913.7 84.0 L 913.9 84.0 L 913.9 60.0 L 917.2 60.0 L 917.2 84.0 L 917.5 84.0 L 917.5 60.0 L 920.7 60.0 L 920.7 84.0 L 921.0 84.0 L 921.0 60.0 L 924.3 60.0 L 924.3 84.0 L 924.6 84.0 L 924.6 60.0 L 927.8 60.0 L 927.8 84.0 L 928.1 84.0 L 928.1 60.0 L 931.4 60.0 L 931.4 84.0 L 931.6 84.0 L 931.6 60.0 L 934.9 60.0 L 934.9 84.0 L 935.2 84.0 L 935.2 60.0 L 938.4 60.0 L 938.4 84.0 L 938.7 84.0 L 938.7 60.0 L 942.0 60.0 L 942.0 84.0 L 942.3 84.0 L 942.3 60.0 L 945.5 60.0 L 945.5 84.0 L 945.8 84.0 L 945.8 60.0 L 949.1 60.0 L 949.1 84.0 L 949.3 84.0 L 949.3 60.0 L 952.6 60.0 L 952.6 84.0 L 952.9 84.0 L 952.9 60.0 L 956.1 60.0 L 956.1 84.0 L 956.4 84.0 L 956.4 60.0 L 959.7 60.0 L 959.7 84.0 L 960.0 84.0 L 960.0 60.0 L 963.2 60.0 L 963.2 84.0 L 963.5 84.0 L 963.5 60.0 L 966.8 60.0 L 966.8 84.0 L 967.0 84.0 L 967.0 60.0 L 970.3 60.0 L 970.3 84.0 L 970.6 84.0 L 970.6 60.0 L 973.9 60.0 L 973.9 84.0 L 974.1 84.0 L 974.1 60.0 L 977.4 60.0 L 977.4 84.0 L 977.7 84.0 L 977.7 60.0 L 980.9 60.0 L 980.9 84.0 L 981.2 84.0 L 981.2 60.0 L 984.5 60.0 L 984.5 84.0 L 984.7 84.0 L 984.7 60.0 L 988.0 60.0 L 988.0 84.0 L 988.3 84.0 L 988.3 60.0 L 991.6 60.0 L 991.6 84.0 L 991.8 84.0 L 991.8 60.0 L 995.1 60.0 L 995.1 84.0 L 995.4 84.0 L 995.4 60.0 L 998.6 60.0 L 998.6 84.0 L 998.9 84.0 L 998.9 60.0 L 1002.2 60.0 L 1002.2 84.0 L 1002.4 84.0 L 1002.4 60.0 L 1005.7 60.0 L 1005.7 84.0 L 1006.0 84.0 L 1006.0 60.0 L 1009.3 60.0 L 1009.3 84.0 L 1009.5 84.0 L 1009.5 60.0 L 1012.8 60.0 L 1012.8 84.0 L 1013.1 84.0 L 1013.1 60.0 L 1016.3 60.0 L 1016.3 84.0 L 1016.6 84.0 L 1016.6 60.0 L 1019.9 60.0 L 1019.9 84.0 L 1020.1 84.0 L 1020.1 60.0 L 1023.4 60.0 L 1023.4 84.0 L 1023.7 84.0 L 1023.7 60.0 L 1027.0 60.0 L 1027.0 84.0 L 1027.2 84.0 L 1027.2 60.0 L 1030.5 60.0 L 1030.5 84.0 L 1030.8 84.0 L 1030.8 60.0 L 1034.0 60.0 L 1034.0 84.0 L 1034.3 84.0 L 1034.3 60.0 L 1037.6 60.0 L 1037.6 84.0 L 1037.9 84.0 L 1037.9 60.0 L 1041.1 60.0 L 1041.1 84.0 L 1041.4 84.0 L 1041.4 60.0 L 1044.7 60.0 L 1044.7 84.0 L 1044.9 84.0 L 1044.9 60.0 L 1048.2 60.0 L 1048.2 84.0 L 1048.5 84.0 L 1048.5 60.0 L 1051.7 60.0 L 1051.7 84.0 L 1052.0 84.0 L 1052.0 60.0 L 1055.3 60.0 L 1055.3 84.0 L 1055.6 84.0 L 1055.6 60.0 L 1058.8 60.0 L 1058.8 84.0 L 1059.1 84.0 L 1059.1 60.0 L 1062.4 60.0 L 1062.4 84.0 L 1062.6 84.0 L 1062.6 60.0 L 1065.9 60.0 L 1065.9 84.0 L 1066.2 84.0 L 1066.2 60.0 L 1069.4 60.0 L 1069.4 84.0 L 1069.7 84.0 L 1069.7 60.0 L 1073.0 60.0 L 1073.0 84.0 L 1073.3 84.0 L 1073.3 60.0 L 1076.5 60.0 L 1076.5 84.0 L 1076.8 84.0 L 1076.8 60.0 L 1080.1 60.0 L 1080.1 84.0 L 1080.3 84.0 L 1080.3 60.0 L 1083.6 60.0 L 1083.6 84.0 L 1083.9 84.0 L 1083.9 60.0 L 1087.2 60.0 L 1087.2 84.0 L 1087.4 84.0 L 1087.4 60.0 L 1090.7 60.0 L 1090.7 84.0 L 1091.0 84.0 L 1091.0 60.0 L 1094.2 60.0 L 1094.2 84.0 L 1094.5 84.0 L 1094.5 60.0 L 1097.8 60.0 L 1097.8 84.0 L 1098.0 84.0 L 1098.0 60.0 L 1101.3 60.0 L 1101.3 84.0 L 1101.6 84.0 L 1101.6 60.0 L 1104.9 60.0 L 1104.9 84.0 L 1105.1 84.0 L 1105.1 60.0 L 1108.4 60.0 L 1108.4 84.0 L 1108.7 84.0 L 1108.7 60.0 L 1111.9 60.0 L 1111.9 84.0 L 1112.2 84.0 L 1112.2 60.0 L 1115.5 60.0 L 1115.5 84.0 L 1115.7 84.0 L 1115.7 60.0 L 1119.0 60.0 L 1119.0 84.0 L 1119.3 84.0 L 1119.3 60.0 L 1122.6 60.0 L 1122.6 84.0 L 1122.8 84.0 L 1122.8 60.0 L 1126.1 60.0 L 1126.1 84.0 L 1126.4 84.0 L 1126.4 60.0 L 1129.6 60.0 L 1129.6 84.0 L 1129.9 84.0 L 1129.9 60.0 L 1130.0 60.0" stroke="#e3b341" stroke-width="1.8" fill="none"/>
<text x="90" y="122" fill="#58a6ff" font-size="12" text-anchor="end">vs_n</text>
<path d="M 100.0 106.0 L 963.9 106.0 L 963.9 130.0 L 974.5 130.0 L 974.5 106.0 L 1130.0 106.0" stroke="#e3b341" stroke-width="1.8" fill="none"/>
<text x="90" y="168" fill="#58a6ff" font-size="12" text-anchor="end">de</text>
<path d="M 100.0 176.0 L 100.0 176.0 L 100.0 152.0 L 102.8 152.0 L 102.8 176.0 L 103.5 176.0 L 103.5 152.0 L 106.3 152.0 L 106.3 176.0 L 107.1 176.0 L 107.1 152.0 L 109.9 152.0 L 109.9 176.0 L 110.6 176.0 L 110.6 152.0 L 113.4 152.0 L 113.4 176.0 L 114.2 176.0 L 114.2 152.0 L 117.0 152.0 L 117.0 176.0 L 117.7 176.0 L 117.7 152.0 L 120.5 152.0 L 120.5 176.0 L 121.2 176.0 L 121.2 152.0 L 124.0 152.0 L 124.0 176.0 L 124.8 176.0 L 124.8 152.0 L 127.6 152.0 L 127.6 176.0 L 128.3 176.0 L 128.3 152.0 L 131.1 152.0 L 131.1 176.0 L 131.9 176.0 L 131.9 152.0 L 134.7 152.0 L 134.7 176.0 L 135.4 176.0 L 135.4 152.0 L 138.2 152.0 L 138.2 176.0 L 139.0 176.0 L 139.0 152.0 L 141.7 152.0 L 141.7 176.0 L 142.5 176.0 L 142.5 152.0 L 145.3 152.0 L 145.3 176.0 L 146.0 176.0 L 146.0 152.0 L 148.8 152.0 L 148.8 176.0 L 149.6 176.0 L 149.6 152.0 L 152.4 152.0 L 152.4 176.0 L 153.1 176.0 L 153.1 152.0 L 155.9 152.0 L 155.9 176.0 L 156.7 176.0 L 156.7 152.0 L 159.4 152.0 L 159.4 176.0 L 160.2 176.0 L 160.2 152.0 L 163.0 152.0 L 163.0 176.0 L 163.7 176.0 L 163.7 152.0 L 166.5 152.0 L 166.5 176.0 L 167.3 176.0 L 167.3 152.0 L 170.1 152.0 L 170.1 176.0 L 170.8 176.0 L 170.8 152.0 L 173.6 152.0 L 173.6 176.0 L 174.4 176.0 L 174.4 152.0 L 177.1 152.0 L 177.1 176.0 L 177.9 176.0 L 177.9 152.0 L 180.7 152.0 L 180.7 176.0 L 181.4 176.0 L 181.4 152.0 L 184.2 152.0 L 184.2 176.0 L 185.0 176.0 L 185.0 152.0 L 187.8 152.0 L 187.8 176.0 L 188.5 176.0 L 188.5 152.0 L 191.3 152.0 L 191.3 176.0 L 192.1 176.0 L 192.1 152.0 L 194.8 152.0 L 194.8 176.0 L 195.6 176.0 L 195.6 152.0 L 198.4 152.0 L 198.4 176.0 L 199.1 176.0 L 199.1 152.0 L 201.9 152.0 L 201.9 176.0 L 202.7 176.0 L 202.7 152.0 L 205.5 152.0 L 205.5 176.0 L 206.2 176.0 L 206.2 152.0 L 209.0 152.0 L 209.0 176.0 L 209.8 176.0 L 209.8 152.0 L 212.5 152.0 L 212.5 176.0 L 213.3 176.0 L 213.3 152.0 L 216.1 152.0 L 216.1 176.0 L 216.8 176.0 L 216.8 152.0 L 219.6 152.0 L 219.6 176.0 L 220.4 176.0 L 220.4 152.0 L 223.2 152.0 L 223.2 176.0 L 223.9 176.0 L 223.9 152.0 L 226.7 152.0 L 226.7 176.0 L 227.5 176.0 L 227.5 152.0 L 230.3 152.0 L 230.3 176.0 L 231.0 176.0 L 231.0 152.0 L 233.8 152.0 L 233.8 176.0 L 234.5 176.0 L 234.5 152.0 L 237.3 152.0 L 237.3 176.0 L 238.1 176.0 L 238.1 152.0 L 240.9 152.0 L 240.9 176.0 L 241.6 176.0 L 241.6 152.0 L 244.4 152.0 L 244.4 176.0 L 245.2 176.0 L 245.2 152.0 L 248.0 152.0 L 248.0 176.0 L 248.7 176.0 L 248.7 152.0 L 251.5 152.0 L 251.5 176.0 L 252.3 176.0 L 252.3 152.0 L 255.0 152.0 L 255.0 176.0 L 255.8 176.0 L 255.8 152.0 L 258.6 152.0 L 258.6 176.0 L 259.3 176.0 L 259.3 152.0 L 262.1 152.0 L 262.1 176.0 L 262.9 176.0 L 262.9 152.0 L 265.7 152.0 L 265.7 176.0 L 266.4 176.0 L 266.4 152.0 L 269.2 152.0 L 269.2 176.0 L 270.0 176.0 L 270.0 152.0 L 272.7 152.0 L 272.7 176.0 L 273.5 176.0 L 273.5 152.0 L 276.3 152.0 L 276.3 176.0 L 277.0 176.0 L 277.0 152.0 L 279.8 152.0 L 279.8 176.0 L 280.6 176.0 L 280.6 152.0 L 283.4 152.0 L 283.4 176.0 L 284.1 176.0 L 284.1 152.0 L 286.9 152.0 L 286.9 176.0 L 287.7 176.0 L 287.7 152.0 L 290.4 152.0 L 290.4 176.0 L 291.2 176.0 L 291.2 152.0 L 294.0 152.0 L 294.0 176.0 L 294.7 176.0 L 294.7 152.0 L 297.5 152.0 L 297.5 176.0 L 298.3 176.0 L 298.3 152.0 L 301.1 152.0 L 301.1 176.0 L 301.8 176.0 L 301.8 152.0 L 304.6 152.0 L 304.6 176.0 L 305.4 176.0 L 305.4 152.0 L 308.1 152.0 L 308.1 176.0 L 308.9 176.0 L 308.9 152.0 L 311.7 152.0 L 311.7 176.0 L 312.4 176.0 L 312.4 152.0 L 315.2 152.0 L 315.2 176.0 L 316.0 176.0 L 316.0 152.0 L 318.8 152.0 L 318.8 176.0 L 319.5 176.0 L 319.5 152.0 L 322.3 152.0 L 322.3 176.0 L 323.1 176.0 L 323.1 152.0 L 325.8 152.0 L 325.8 176.0 L 326.6 176.0 L 326.6 152.0 L 329.4 152.0 L 329.4 176.0 L 330.1 176.0 L 330.1 152.0 L 332.9 152.0 L 332.9 176.0 L 333.7 176.0 L 333.7 152.0 L 336.5 152.0 L 336.5 176.0 L 337.2 176.0 L 337.2 152.0 L 340.0 152.0 L 340.0 176.0 L 340.8 176.0 L 340.8 152.0 L 343.6 152.0 L 343.6 176.0 L 344.3 176.0 L 344.3 152.0 L 347.1 152.0 L 347.1 176.0 L 347.8 176.0 L 347.8 152.0 L 350.6 152.0 L 350.6 176.0 L 351.4 176.0 L 351.4 152.0 L 354.2 152.0 L 354.2 176.0 L 354.9 176.0 L 354.9 152.0 L 357.7 152.0 L 357.7 176.0 L 358.5 176.0 L 358.5 152.0 L 361.3 152.0 L 361.3 176.0 L 362.0 176.0 L 362.0 152.0 L 364.8 152.0 L 364.8 176.0 L 365.6 176.0 L 365.6 152.0 L 368.3 152.0 L 368.3 176.0 L 369.1 176.0 L 369.1 152.0 L 371.9 152.0 L 371.9 176.0 L 372.6 176.0 L 372.6 152.0 L 375.4 152.0 L 375.4 176.0 L 376.2 176.0 L 376.2 152.0 L 379.0 152.0 L 379.0 176.0 L 379.7 176.0 L 379.7 152.0 L 382.5 152.0 L 382.5 176.0 L 383.3 176.0 L 383.3 152.0 L 386.0 152.0 L 386.0 176.0 L 386.8 176.0 L 386.8 152.0 L 389.6 152.0 L 389.6 176.0 L 390.3 176.0 L 390.3 152.0 L 393.1 152.0 L 393.1 176.0 L 393.9 176.0 L 393.9 152.0 L 396.7 152.0 L 396.7 176.0 L 397.4 176.0 L 397.4 152.0 L 400.2 152.0 L 400.2 176.0 L 401.0 176.0 L 401.0 152.0 L 403.7 152.0 L 403.7 176.0 L 404.5 176.0 L 404.5 152.0 L 407.3 152.0 L 407.3 176.0 L 408.0 176.0 L 408.0 152.0 L 410.8 152.0 L 410.8 176.0 L 411.6 176.0 L 411.6 152.0 L 414.4 152.0 L 414.4 176.0 L 415.1 176.0 L 415.1 152.0 L 417.9 152.0 L 417.9 176.0 L 418.7 176.0 L 418.7 152.0 L 421.4 152.0 L 421.4 176.0 L 422.2 176.0 L 422.2 152.0 L 425.0 152.0 L 425.0 176.0 L 425.7 176.0 L 425.7 152.0 L 428.5 152.0 L 428.5 176.0 L 429.3 176.0 L 429.3 152.0 L 432.1 152.0 L 432.1 176.0 L 432.8 176.0 L 432.8 152.0 L 435.6 152.0 L 435.6 176.0 L 436.4 176.0 L 436.4 152.0 L 439.1 152.0 L 439.1 176.0 L 439.9 176.0 L 439.9 152.0 L 442.7 152.0 L 442.7 176.0 L 443.4 176.0 L 443.4 152.0 L 446.2 152.0 L 446.2 176.0 L 447.0 176.0 L 447.0 152.0 L 449.8 152.0 L 449.8 176.0 L 450.5 176.0 L 450.5 152.0 L 453.3 152.0 L 453.3 176.0 L 454.1 176.0 L 454.1 152.0 L 456.9 152.0 L 456.9 176.0 L 457.6 176.0 L 457.6 152.0 L 460.4 152.0 L 460.4 176.0 L 461.1 176.0 L 461.1 152.0 L 463.9 152.0 L 463.9 176.0 L 464.7 176.0 L 464.7 152.0 L 467.5 152.0 L 467.5 176.0 L 468.2 176.0 L 468.2 152.0 L 471.0 152.0 L 471.0 176.0 L 471.8 176.0 L 471.8 152.0 L 474.6 152.0 L 474.6 176.0 L 475.3 176.0 L 475.3 152.0 L 478.1 152.0 L 478.1 176.0 L 478.9 176.0 L 478.9 152.0 L 481.6 152.0 L 481.6 176.0 L 482.4 176.0 L 482.4 152.0 L 485.2 152.0 L 485.2 176.0 L 485.9 176.0 L 485.9 152.0 L 488.7 152.0 L 488.7 176.0 L 489.5 176.0 L 489.5 152.0 L 492.3 152.0 L 492.3 176.0 L 493.0 176.0 L 493.0 152.0 L 495.8 152.0 L 495.8 176.0 L 496.6 176.0 L 496.6 152.0 L 499.3 152.0 L 499.3 176.0 L 500.1 176.0 L 500.1 152.0 L 502.9 152.0 L 502.9 176.0 L 503.6 176.0 L 503.6 152.0 L 506.4 152.0 L 506.4 176.0 L 507.2 176.0 L 507.2 152.0 L 510.0 152.0 L 510.0 176.0 L 510.7 176.0 L 510.7 152.0 L 513.5 152.0 L 513.5 176.0 L 514.3 176.0 L 514.3 152.0 L 517.0 152.0 L 517.0 176.0 L 517.8 176.0 L 517.8 152.0 L 520.6 152.0 L 520.6 176.0 L 521.3 176.0 L 521.3 152.0 L 524.1 152.0 L 524.1 176.0 L 524.9 176.0 L 524.9 152.0 L 527.7 152.0 L 527.7 176.0 L 528.4 176.0 L 528.4 152.0 L 531.2 152.0 L 531.2 176.0 L 532.0 176.0 L 532.0 152.0 L 534.7 152.0 L 534.7 176.0 L 535.5 176.0 L 535.5 152.0 L 538.3 152.0 L 538.3 176.0 L 539.0 176.0 L 539.0 152.0 L 541.8 152.0 L 541.8 176.0 L 542.6 176.0 L 542.6 152.0 L 545.4 152.0 L 545.4 176.0 L 546.1 176.0 L 546.1 152.0 L 548.9 152.0 L 548.9 176.0 L 549.7 176.0 L 549.7 152.0 L 552.4 152.0 L 552.4 176.0 L 553.2 176.0 L 553.2 152.0 L 556.0 152.0 L 556.0 176.0 L 556.7 176.0 L 556.7 152.0 L 559.5 152.0 L 559.5 176.0 L 560.3 176.0 L 560.3 152.0 L 563.1 152.0 L 563.1 176.0 L 563.8 176.0 L 563.8 152.0 L 566.6 152.0 L 566.6 176.0 L 567.4 176.0 L 567.4 152.0 L 570.2 152.0 L 570.2 176.0 L 570.9 176.0 L 570.9 152.0 L 573.7 152.0 L 573.7 176.0 L 574.4 176.0 L 574.4 152.0 L 577.2 152.0 L 577.2 176.0 L 578.0 176.0 L 578.0 152.0 L 580.8 152.0 L 580.8 176.0 L 581.5 176.0 L 581.5 152.0 L 584.3 152.0 L 584.3 176.0 L 585.1 176.0 L 585.1 152.0 L 587.9 152.0 L 587.9 176.0 L 588.6 176.0 L 588.6 152.0 L 591.4 152.0 L 591.4 176.0 L 592.2 176.0 L 592.2 152.0 L 594.9 152.0 L 594.9 176.0 L 595.7 176.0 L 595.7 152.0 L 598.5 152.0 L 598.5 176.0 L 599.2 176.0 L 599.2 152.0 L 602.0 152.0 L 602.0 176.0 L 602.8 176.0 L 602.8 152.0 L 605.6 152.0 L 605.6 176.0 L 606.3 176.0 L 606.3 152.0 L 609.1 152.0 L 609.1 176.0 L 609.9 176.0 L 609.9 152.0 L 612.6 152.0 L 612.6 176.0 L 613.4 176.0 L 613.4 152.0 L 616.2 152.0 L 616.2 176.0 L 616.9 176.0 L 616.9 152.0 L 619.7 152.0 L 619.7 176.0 L 620.5 176.0 L 620.5 152.0 L 623.3 152.0 L 623.3 176.0 L 624.0 176.0 L 624.0 152.0 L 626.8 152.0 L 626.8 176.0 L 627.6 176.0 L 627.6 152.0 L 630.3 152.0 L 630.3 176.0 L 631.1 176.0 L 631.1 152.0 L 633.9 152.0 L 633.9 176.0 L 634.6 176.0 L 634.6 152.0 L 637.4 152.0 L 637.4 176.0 L 638.2 176.0 L 638.2 152.0 L 641.0 152.0 L 641.0 176.0 L 641.7 176.0 L 641.7 152.0 L 644.5 152.0 L 644.5 176.0 L 645.3 176.0 L 645.3 152.0 L 648.0 152.0 L 648.0 176.0 L 648.8 176.0 L 648.8 152.0 L 651.6 152.0 L 651.6 176.0 L 652.3 176.0 L 652.3 152.0 L 655.1 152.0 L 655.1 176.0 L 655.9 176.0 L 655.9 152.0 L 658.7 152.0 L 658.7 176.0 L 659.4 176.0 L 659.4 152.0 L 662.2 152.0 L 662.2 176.0 L 663.0 176.0 L 663.0 152.0 L 665.7 152.0 L 665.7 176.0 L 666.5 176.0 L 666.5 152.0 L 669.3 152.0 L 669.3 176.0 L 670.0 176.0 L 670.0 152.0 L 672.8 152.0 L 672.8 176.0 L 673.6 176.0 L 673.6 152.0 L 676.4 152.0 L 676.4 176.0 L 677.1 176.0 L 677.1 152.0 L 679.9 152.0 L 679.9 176.0 L 680.7 176.0 L 680.7 152.0 L 683.5 152.0 L 683.5 176.0 L 684.2 176.0 L 684.2 152.0 L 687.0 152.0 L 687.0 176.0 L 687.7 176.0 L 687.7 152.0 L 690.5 152.0 L 690.5 176.0 L 691.3 176.0 L 691.3 152.0 L 694.1 152.0 L 694.1 176.0 L 694.8 176.0 L 694.8 152.0 L 697.6 152.0 L 697.6 176.0 L 698.4 176.0 L 698.4 152.0 L 701.2 152.0 L 701.2 176.0 L 701.9 176.0 L 701.9 152.0 L 704.7 152.0 L 704.7 176.0 L 705.5 176.0 L 705.5 152.0 L 708.2 152.0 L 708.2 176.0 L 709.0 176.0 L 709.0 152.0 L 711.8 152.0 L 711.8 176.0 L 712.5 176.0 L 712.5 152.0 L 715.3 152.0 L 715.3 176.0 L 716.1 176.0 L 716.1 152.0 L 718.9 152.0 L 718.9 176.0 L 719.6 176.0 L 719.6 152.0 L 722.4 152.0 L 722.4 176.0 L 723.2 176.0 L 723.2 152.0 L 725.9 152.0 L 725.9 176.0 L 726.7 176.0 L 726.7 152.0 L 729.5 152.0 L 729.5 176.0 L 730.2 176.0 L 730.2 152.0 L 733.0 152.0 L 733.0 176.0 L 733.8 176.0 L 733.8 152.0 L 736.6 152.0 L 736.6 176.0 L 737.3 176.0 L 737.3 152.0 L 740.1 152.0 L 740.1 176.0 L 740.9 176.0 L 740.9 152.0 L 743.6 152.0 L 743.6 176.0 L 744.4 176.0 L 744.4 152.0 L 747.2 152.0 L 747.2 176.0 L 747.9 176.0 L 747.9 152.0 L 750.7 152.0 L 750.7 176.0 L 751.5 176.0 L 751.5 152.0 L 754.3 152.0 L 754.3 176.0 L 755.0 176.0 L 755.0 152.0 L 757.8 152.0 L 757.8 176.0 L 758.6 176.0 L 758.6 152.0 L 761.3 152.0 L 761.3 176.0 L 762.1 176.0 L 762.1 152.0 L 764.9 152.0 L 764.9 176.0 L 765.6 176.0 L 765.6 152.0 L 768.4 152.0 L 768.4 176.0 L 769.2 176.0 L 769.2 152.0 L 772.0 152.0 L 772.0 176.0 L 772.7 176.0 L 772.7 152.0 L 775.5 152.0 L 775.5 176.0 L 776.3 176.0 L 776.3 152.0 L 779.0 152.0 L 779.0 176.0 L 779.8 176.0 L 779.8 152.0 L 782.6 152.0 L 782.6 176.0 L 783.3 176.0 L 783.3 152.0 L 786.1 152.0 L 786.1 176.0 L 786.9 176.0 L 786.9 152.0 L 789.7 152.0 L 789.7 176.0 L 790.4 176.0 L 790.4 152.0 L 793.2 152.0 L 793.2 176.0 L 794.0 176.0 L 794.0 152.0 L 796.8 152.0 L 796.8 176.0 L 797.5 176.0 L 797.5 152.0 L 800.3 152.0 L 800.3 176.0 L 801.0 176.0 L 801.0 152.0 L 803.8 152.0 L 803.8 176.0 L 804.6 176.0 L 804.6 152.0 L 807.4 152.0 L 807.4 176.0 L 808.1 176.0 L 808.1 152.0 L 810.9 152.0 L 810.9 176.0 L 811.7 176.0 L 811.7 152.0 L 814.5 152.0 L 814.5 176.0 L 815.2 176.0 L 815.2 152.0 L 818.0 152.0 L 818.0 176.0 L 818.8 176.0 L 818.8 152.0 L 821.5 152.0 L 821.5 176.0 L 822.3 176.0 L 822.3 152.0 L 825.1 152.0 L 825.1 176.0 L 825.8 176.0 L 825.8 152.0 L 828.6 152.0 L 828.6 176.0 L 829.4 176.0 L 829.4 152.0 L 832.2 152.0 L 832.2 176.0 L 832.9 176.0 L 832.9 152.0 L 835.7 152.0 L 835.7 176.0 L 836.5 176.0 L 836.5 152.0 L 839.2 152.0 L 839.2 176.0 L 840.0 176.0 L 840.0 152.0 L 842.8 152.0 L 842.8 176.0 L 843.5 176.0 L 843.5 152.0 L 846.3 152.0 L 846.3 176.0 L 847.1 176.0 L 847.1 152.0 L 849.9 152.0 L 849.9 176.0 L 850.6 176.0 L 850.6 152.0 L 853.4 152.0 L 853.4 176.0 L 854.2 176.0 L 854.2 152.0 L 856.9 152.0 L 856.9 176.0 L 857.7 176.0 L 857.7 152.0 L 860.5 152.0 L 860.5 176.0 L 861.2 176.0 L 861.2 152.0 L 864.0 152.0 L 864.0 176.0 L 864.8 176.0 L 864.8 152.0 L 867.6 152.0 L 867.6 176.0 L 868.3 176.0 L 868.3 152.0 L 871.1 152.0 L 871.1 176.0 L 871.9 176.0 L 871.9 152.0 L 874.6 152.0 L 874.6 176.0 L 875.4 176.0 L 875.4 152.0 L 878.2 152.0 L 878.2 176.0 L 878.9 176.0 L 878.9 152.0 L 881.7 152.0 L 881.7 176.0 L 882.5 176.0 L 882.5 152.0 L 885.3 152.0 L 885.3 176.0 L 886.0 176.0 L 886.0 152.0 L 888.8 152.0 L 888.8 176.0 L 889.6 176.0 L 889.6 152.0 L 892.3 152.0 L 892.3 176.0 L 893.1 176.0 L 893.1 152.0 L 895.9 152.0 L 895.9 176.0 L 896.6 176.0 L 896.6 152.0 L 899.4 152.0 L 899.4 176.0 L 900.2 176.0 L 900.2 152.0 L 903.0 152.0 L 903.0 176.0 L 903.7 176.0 L 903.7 152.0 L 906.5 152.0 L 906.5 176.0 L 907.3 176.0 L 907.3 152.0 L 910.1 152.0 L 910.1 176.0 L 910.8 176.0 L 910.8 152.0 L 913.6 152.0 L 913.6 176.0 L 914.3 176.0 L 914.3 152.0 L 917.1 152.0 L 917.1 176.0 L 917.9 176.0 L 917.9 152.0 L 920.7 152.0 L 920.7 176.0 L 921.4 176.0 L 921.4 152.0 L 924.2 152.0 L 924.2 176.0 L 925.0 176.0 L 925.0 152.0 L 927.8 152.0 L 927.8 176.0 L 928.5 176.0 L 928.5 152.0 L 931.3 152.0 L 931.3 176.0 L 932.1 176.0 L 932.1 152.0 L 934.8 152.0 L 934.8 176.0 L 935.6 176.0 L 935.6 152.0 L 938.4 152.0 L 938.4 176.0 L 939.1 176.0 L 939.1 152.0 L 941.9 152.0 L 941.9 176.0 L 942.7 176.0 L 942.7 152.0 L 945.5 152.0 L 945.5 176.0 L 946.2 176.0 L 946.2 152.0 L 949.0 152.0 L 949.0 176.0 L 1027.6 176.0 L 1027.6 152.0 L 1030.4 152.0 L 1030.4 176.0 L 1031.2 176.0 L 1031.2 152.0 L 1034.0 152.0 L 1034.0 176.0 L 1034.7 176.0 L 1034.7 152.0 L 1037.5 152.0 L 1037.5 176.0 L 1038.3 176.0 L 1038.3 152.0 L 1041.1 152.0 L 1041.1 176.0 L 1041.8 176.0 L 1041.8 152.0 L 1044.6 152.0 L 1044.6 176.0 L 1045.4 176.0 L 1045.4 152.0 L 1048.1 152.0 L 1048.1 176.0 L 1048.9 176.0 L 1048.9 152.0 L 1051.7 152.0 L 1051.7 176.0 L 1052.4 176.0 L 1052.4 152.0 L 1055.2 152.0 L 1055.2 176.0 L 1056.0 176.0 L 1056.0 152.0 L 1058.8 152.0 L 1058.8 176.0 L 1059.5 176.0 L 1059.5 152.0 L 1062.3 152.0 L 1062.3 176.0 L 1063.1 176.0 L 1063.1 152.0 L 1065.8 152.0 L 1065.8 176.0 L 1066.6 176.0 L 1066.6 152.0 L 1069.4 152.0 L 1069.4 176.0 L 1070.1 176.0 L 1070.1 152.0 L 1072.9 152.0 L 1072.9 176.0 L 1073.7 176.0 L 1073.7 152.0 L 1076.5 152.0 L 1076.5 176.0 L 1077.2 176.0 L 1077.2 152.0 L 1080.0 152.0 L 1080.0 176.0 L 1080.8 176.0 L 1080.8 152.0 L 1083.5 152.0 L 1083.5 176.0 L 1084.3 176.0 L 1084.3 152.0 L 1087.1 152.0 L 1087.1 176.0 L 1087.8 176.0 L 1087.8 152.0 L 1090.6 152.0 L 1090.6 176.0 L 1091.4 176.0 L 1091.4 152.0 L 1094.2 152.0 L 1094.2 176.0 L 1094.9 176.0 L 1094.9 152.0 L 1097.7 152.0 L 1097.7 176.0 L 1098.5 176.0 L 1098.5 152.0 L 1101.2 152.0 L 1101.2 176.0 L 1102.0 176.0 L 1102.0 152.0 L 1104.8 152.0 L 1104.8 176.0 L 1105.5 176.0 L 1105.5 152.0 L 1108.3 152.0 L 1108.3 176.0 L 1109.1 176.0 L 1109.1 152.0 L 1111.9 152.0 L 1111.9 176.0 L 1112.6 176.0 L 1112.6 152.0 L 1115.4 152.0 L 1115.4 176.0 L 1116.2 176.0 L 1116.2 152.0 L 1118.9 152.0 L 1118.9 176.0 L 1119.7 176.0 L 1119.7 152.0 L 1122.5 152.0 L 1122.5 176.0 L 1123.2 176.0 L 1123.2 152.0 L 1126.0 152.0 L 1126.0 176.0 L 1126.8 176.0 L 1126.8 152.0 L 1129.6 152.0 L 1129.6 176.0 L 1130.0 176.0" stroke="#e3b341" stroke-width="1.8" fill="none"/>
</svg>