<svg xmlns="http://www.w3.org/2000/svg" width="1150" height="324" font-family="monospace">
<rect width="1150" height="324" fill="#0d1117"/>
<text x="100" y="30" fill="#e6edf3" font-size="15" font-weight="bold">BlitCRT scanline @ 6.4MHz (real RTL): de + RGB bars + hsync -- 63.6us/line = 15.7kHz</text>
<line x1="100.0" y1="44" x2="100.0" y2="292" stroke="#21262d"/>
<text x="100.0" y="310" fill="#7d8590" font-size="10" text-anchor="middle">0.0us</text>
<line x1="203.0" y1="44" x2="203.0" y2="292" stroke="#21262d"/>
<text x="203.0" y="310" fill="#7d8590" font-size="10" text-anchor="middle">6.6us</text>
<line x1="306.0" y1="44" x2="306.0" y2="292" stroke="#21262d"/>
<text x="306.0" y="310" fill="#7d8590" font-size="10" text-anchor="middle">13.2us</text>
<line x1="409.0" y1="44" x2="409.0" y2="292" stroke="#21262d"/>
<text x="409.0" y="310" fill="#7d8590" font-size="10" text-anchor="middle">19.8us</text>
<line x1="512.0" y1="44" x2="512.0" y2="292" stroke="#21262d"/>
<text x="512.0" y="310" fill="#7d8590" font-size="10" text-anchor="middle">26.4us</text>
<line x1="615.0" y1="44" x2="615.0" y2="292" stroke="#21262d"/>
<text x="615.0" y="310" fill="#7d8590" font-size="10" text-anchor="middle">33.0us</text>
<line x1="718.0" y1="44" x2="718.0" y2="292" stroke="#21262d"/>
<text x="718.0" y="310" fill="#7d8590" font-size="10" text-anchor="middle">39.6us</text>
<line x1="821.0" y1="44" x2="821.0" y2="292" stroke="#21262d"/>
<text x="821.0" y="310" fill="#7d8590" font-size="10" text-anchor="middle">46.2us</text>
<line x1="924.0" y1="44" x2="924.0" y2="292" stroke="#21262d"/>
<text x="924.0" y="310" fill="#7d8590" font-size="10" text-anchor="middle">52.8us</text>
<line x1="1027.0" y1="44" x2="1027.0" y2="292" stroke="#21262d"/>
<text x="1027.0" y="310" fill="#7d8590" font-size="10" text-anchor="middle">59.4us</text>
<line x1="1130.0" y1="44" x2="1130.0" y2="292" stroke="#21262d"/>
<text x="1130.0" y="310" fill="#7d8590" font-size="10" text-anchor="middle">66.0us</text>
<text x="90" y="76" fill="#58a6ff" font-size="12" text-anchor="end">de</text>
<path d="M 100.0 84.0 L 101.2 84.0 L 101.2 60.0 L 881.5 60.0 L 881.5 84.0 L 1093.7 84.0 L 1093.7 60.0 L 1130.0 60.0" stroke="#e3b341" stroke-width="1.8" fill="none"/>
<text x="90" y="122" fill="#58a6ff" font-size="12" text-anchor="end">hs_n</text>
<path d="M 100.0 106.0 L 901.0 106.0 L 901.0 130.0 L 976.6 130.0 L 976.6 106.0 L 1130.0 106.0" stroke="#e3b341" stroke-width="1.8" fill="none"/>
<text x="90" y="168" fill="#58a6ff" font-size="12" text-anchor="end">R</text>
<rect x="100.0" y="152" width="1.2" height="24" fill="#161b22" stroke="#30363d" stroke-width="0.5"/>
<rect x="101.2" y="152" width="780.3" height="24" fill="#1f6feb" stroke="#30363d" stroke-width="0.5"/>
<text x="491.4" y="168" fill="#e6edf3" font-size="10" text-anchor="middle">F</text>
<rect x="881.5" y="152" width="212.1" height="24" fill="#161b22" stroke="#30363d" stroke-width="0.5"/>
<text x="987.6" y="168" fill="#e6edf3" font-size="10" text-anchor="middle">0</text>
<rect x="1093.7" y="152" width="36.3" height="24" fill="#1f6feb" stroke="#30363d" stroke-width="0.5"/>
<text x="1111.8" y="168" fill="#e6edf3" font-size="10" text-anchor="middle">F</text>
<text x="90" y="214" fill="#58a6ff" font-size="12" text-anchor="end">G</text>
<rect x="100.0" y="198" width="1.2" height="24" fill="#161b22" stroke="#30363d" stroke-width="0.5"/>
<rect x="101.2" y="198" width="780.3" height="24" fill="#1f6feb" stroke="#30363d" stroke-width="0.5"/>
<text x="491.4" y="214" fill="#e6edf3" font-size="10" text-anchor="middle">F</text>
<rect x="881.5" y="198" width="212.1" height="24" fill="#161b22" stroke="#30363d" stroke-width="0.5"/>
<text x="987.6" y="214" fill="#e6edf3" font-size="10" text-anchor="middle">0</text>
<rect x="1093.7" y="198" width="36.3" height="24" fill="#1f6feb" stroke="#30363d" stroke-width="0.5"/>
<text x="1111.8" y="214" fill="#e6edf3" font-size="10" text-anchor="middle">F</text>
<text x="90" y="260" fill="#58a6ff" font-size="12" text-anchor="end">B</text>
<rect x="100.0" y="244" width="1.2" height="24" fill="#161b22" stroke="#30363d" stroke-width="0.5"/>
<rect x="101.2" y="244" width="780.3" height="24" fill="#1f6feb" stroke="#30363d" stroke-width="0.5"/>
<text x="491.4" y="260" fill="#e6edf3" font-size="10" text-anchor="middle">F</text>
<rect x="881.5" y="244" width="212.1" height="24" fill="#161b22" stroke="#30363d" stroke-width="0.5"/>
<text x="987.6" y="260" fill="#e6edf3" font-size="10" text-anchor="middle">0</text>
<rect x="1093.7" y="244" width="36.3" height="24" fill="#1f6feb" stroke="#30363d" stroke-width="0.5"/>
<text x="1111.8" y="260" fill="#e6edf3" font-size="10" text-anchor="middle">F</text>
</svg>